<svg width="645" height="240" viewBox="0 0 645 240" fill="none" xmlns="http://www.w3.org/2000/svg">
<rect x="53" y="36" width="48" height="48" rx="12" fill="#C9E9D0"/>
<path d="M77 63C80.3137 63 83 60.3137 83 57C83 53.6863 80.3137 51 77 51C73.6863 51 71 53.6863 71 57C71 60.3137 73.6863 63 77 63Z" stroke="#53A282" stroke-width="2" stroke-miterlimit="10"/>
<path d="M68 67.9998C68.9125 66.4796 70.2245 65.2172 71.8043 64.3396C73.3841 63.462 75.176 63 77.0001 63C78.8241 63 80.616 63.4621 82.1958 64.3397C83.7756 65.2174 85.0876 66.4797 86 68" stroke="#53A282" stroke-width="2" stroke-linecap="round" stroke-linejoin="round"/>
<rect x="244" y="36" width="48" height="48" rx="12" fill="#FBE2B6"/>
<rect x="260" y="54" width="6" height="7" stroke="#DEDA17" stroke-width="2" stroke-linecap="round" stroke-linejoin="round"/>
<rect x="270" y="59" width="6" height="7" stroke="#DEDA17" stroke-width="2" stroke-linecap="round" stroke-linejoin="round"/>
<path d="M263 54V51" stroke="#DEDA17" stroke-width="2" stroke-linecap="round" stroke-linejoin="round"/>
<path d="M263 64V61" stroke="#DEDA17" stroke-width="2" stroke-linecap="round" stroke-linejoin="round"/>
<path d="M273 59V56" stroke="#DEDA17" stroke-width="2" stroke-linecap="round" stroke-linejoin="round"/>
<path d="M274 69V66" stroke="#DEDA17" stroke-width="2" stroke-linecap="round" stroke-linejoin="round"/>
<rect x="432" y="36" width="48" height="48" rx="12" fill="#CBC4EE"/>
<path d="M446 69H466" stroke="#7745AF" stroke-width="2" stroke-linecap="round" stroke-linejoin="round"/>
<path d="M464 69V60H448V69" stroke="#7745AF" stroke-width="2" stroke-linecap="round" stroke-linejoin="round"/>
<path d="M456 60V56" stroke="#7745AF" stroke-width="2" stroke-linecap="round" stroke-linejoin="round"/>
<path d="M456 53V51" stroke="#7745AF" stroke-width="2" stroke-linecap="round" stroke-linejoin="round"/>
<rect x="53" y="136" width="48" height="48" rx="12" fill="#C9E9D0"/>
<path d="M77 163C80.3137 163 83 160.314 83 157C83 153.686 80.3137 151 77 151C73.6863 151 71 153.686 71 157C71 160.314 73.6863 163 77 163Z" stroke="#53A282" stroke-width="2" stroke-miterlimit="10"/>
<path d="M68 168C68.9125 166.48 70.2245 165.217 71.8043 164.34C73.3841 163.462 75.176 163 77.0001 163C78.8241 163 80.616 163.462 82.1958 164.34C83.7756 165.217 85.0876 166.48 86 168" stroke="#53A282" stroke-width="2" stroke-linecap="round" stroke-linejoin="round"/>
<path d="M124.792 159.208C125.443 159.379 125.944 159.699 126.296 160.168C126.659 160.637 126.84 161.224 126.84 161.928C126.84 162.92 126.515 163.683 125.864 164.216C125.213 164.739 124.291 165 123.096 165H119.064C118.861 165 118.696 164.941 118.568 164.824C118.451 164.707 118.392 164.552 118.392 164.36V154.36C118.392 154.168 118.451 154.013 118.568 153.896C118.696 153.779 118.861 153.72 119.064 153.72H122.92C124.083 153.72 124.984 153.976 125.624 154.488C126.264 155 126.584 155.725 126.584 156.664C126.584 157.272 126.424 157.795 126.104 158.232C125.795 158.669 125.357 158.995 124.792 159.208ZM119.688 158.728H122.728C123.571 158.728 124.205 158.557 124.632 158.216C125.069 157.875 125.288 157.379 125.288 156.728C125.288 155.448 124.435 154.808 122.728 154.808H119.688V158.728ZM122.968 163.912C123.853 163.912 124.504 163.752 124.92 163.432C125.347 163.101 125.56 162.589 125.56 161.896C125.56 160.509 124.696 159.816 122.968 159.816H119.688V163.912H122.968ZM132.165 157.016C134.117 157.016 135.093 158.04 135.093 160.088V164.44C135.093 164.632 135.035 164.787 134.917 164.904C134.811 165.021 134.661 165.08 134.469 165.08C134.277 165.08 134.123 165.021 134.005 164.904C133.888 164.787 133.829 164.632 133.829 164.44V163.672C133.627 164.131 133.317 164.488 132.901 164.744C132.485 164.989 132.005 165.112 131.461 165.112C130.96 165.112 130.496 165.011 130.069 164.808C129.653 164.605 129.323 164.323 129.077 163.96C128.832 163.597 128.709 163.197 128.709 162.76C128.709 162.173 128.859 161.72 129.157 161.4C129.456 161.069 129.947 160.835 130.629 160.696C131.312 160.547 132.261 160.472 133.477 160.472H133.829V159.944C133.829 159.304 133.696 158.835 133.429 158.536C133.173 158.237 132.752 158.088 132.165 158.088C131.44 158.088 130.704 158.285 129.957 158.68C129.669 158.861 129.467 158.952 129.349 158.952C129.221 158.952 129.115 158.904 129.029 158.808C128.944 158.712 128.901 158.589 128.901 158.44C128.901 158.291 128.944 158.163 129.029 158.056C129.125 157.939 129.275 157.821 129.477 157.704C129.851 157.491 130.272 157.325 130.741 157.208C131.221 157.08 131.696 157.016 132.165 157.016ZM131.637 164.088C132.277 164.088 132.8 163.875 133.205 163.448C133.621 163.011 133.829 162.451 133.829 161.768V161.304H133.541C132.603 161.304 131.888 161.347 131.397 161.432C130.907 161.507 130.555 161.64 130.341 161.832C130.139 162.013 130.037 162.285 130.037 162.648C130.037 163.064 130.187 163.411 130.485 163.688C130.795 163.955 131.179 164.088 131.637 164.088ZM138.106 165C137.892 165 137.727 164.947 137.61 164.84C137.492 164.723 137.434 164.563 137.434 164.36V157.688C137.434 157.496 137.492 157.341 137.61 157.224C137.727 157.107 137.882 157.048 138.074 157.048C138.276 157.048 138.436 157.107 138.554 157.224C138.671 157.341 138.73 157.496 138.73 157.688V163.976H141.754V157.688C141.754 157.496 141.807 157.341 141.914 157.224C142.031 157.107 142.186 157.048 142.378 157.048C142.58 157.048 142.74 157.107 142.858 157.224C142.975 157.341 143.034 157.496 143.034 157.688V163.976H146.058V157.688C146.058 157.496 146.116 157.341 146.234 157.224C146.351 157.107 146.506 157.048 146.698 157.048C146.89 157.048 147.044 157.107 147.162 157.224C147.279 157.341 147.338 157.496 147.338 157.688V164.328C147.348 164.531 147.295 164.696 147.178 164.824C147.06 164.941 146.9 165 146.698 165H138.106ZM154.465 165.08C154.262 165.08 154.102 165.027 153.985 164.92C153.867 164.803 153.809 164.648 153.809 164.456V157.88C153.809 157.667 153.867 157.501 153.985 157.384C154.102 157.267 154.262 157.208 154.465 157.208H159.825C160.027 157.208 160.187 157.267 160.305 157.384C160.433 157.501 160.497 157.661 160.497 157.864V164.456C160.497 164.648 160.438 164.803 160.321 164.92C160.203 165.027 160.049 165.08 159.857 165.08C159.654 165.08 159.494 165.027 159.377 164.92C159.259 164.803 159.201 164.648 159.201 164.456V158.232H155.105V164.456C155.105 164.648 155.046 164.803 154.929 164.92C154.811 165.027 154.657 165.08 154.465 165.08ZM166.104 165.112C165.368 165.112 164.717 164.947 164.152 164.616C163.597 164.285 163.165 163.816 162.856 163.208C162.557 162.589 162.408 161.875 162.408 161.064C162.408 160.253 162.557 159.544 162.856 158.936C163.165 158.317 163.597 157.843 164.152 157.512C164.717 157.181 165.368 157.016 166.104 157.016C166.84 157.016 167.491 157.181 168.056 157.512C168.621 157.843 169.053 158.317 169.352 158.936C169.661 159.544 169.816 160.253 169.816 161.064C169.816 161.875 169.661 162.589 169.352 163.208C169.053 163.816 168.621 164.285 168.056 164.616C167.491 164.947 166.84 165.112 166.104 165.112ZM166.104 164.04C166.872 164.04 167.459 163.789 167.864 163.288C168.28 162.776 168.488 162.035 168.488 161.064C168.488 160.115 168.28 159.384 167.864 158.872C167.448 158.349 166.861 158.088 166.104 158.088C165.347 158.088 164.76 158.349 164.344 158.872C163.928 159.384 163.72 160.115 163.72 161.064C163.72 162.024 163.923 162.76 164.328 163.272C164.744 163.784 165.336 164.04 166.104 164.04ZM173.578 159.16C173.578 160.835 173.402 162.125 173.05 163.032C172.709 163.939 172.144 164.611 171.354 165.048C171.28 165.08 171.189 165.096 171.082 165.096C170.922 165.096 170.789 165.048 170.682 164.952C170.586 164.856 170.538 164.733 170.538 164.584C170.538 164.477 170.565 164.376 170.618 164.28C170.672 164.184 170.752 164.109 170.858 164.056C171.242 163.832 171.541 163.533 171.754 163.16C171.978 162.787 172.133 162.291 172.218 161.672C172.314 161.043 172.362 160.211 172.362 159.176V157.88C172.362 157.667 172.421 157.501 172.538 157.384C172.656 157.267 172.816 157.208 173.018 157.208H177.258C177.461 157.208 177.621 157.267 177.738 157.384C177.866 157.501 177.93 157.661 177.93 157.864V164.456C177.93 164.637 177.866 164.787 177.738 164.904C177.621 165.021 177.466 165.08 177.274 165.08C177.082 165.08 176.928 165.021 176.81 164.904C176.693 164.787 176.634 164.637 176.634 164.456V158.232H173.578V159.16Z" fill="black"/>
<rect x="244" y="136" width="48" height="48" rx="12" fill="#FBE2B6"/>
<rect x="260" y="154" width="6" height="7" stroke="#DEDA17" stroke-width="2" stroke-linecap="round" stroke-linejoin="round"/>
<rect x="270" y="159" width="6" height="7" stroke="#DEDA17" stroke-width="2" stroke-linecap="round" stroke-linejoin="round"/>
<path d="M263 154V151" stroke="#DEDA17" stroke-width="2" stroke-linecap="round" stroke-linejoin="round"/>
<path d="M263 164V161" stroke="#DEDA17" stroke-width="2" stroke-linecap="round" stroke-linejoin="round"/>
<path d="M273 159V156" stroke="#DEDA17" stroke-width="2" stroke-linecap="round" stroke-linejoin="round"/>
<path d="M274 169V166" stroke="#DEDA17" stroke-width="2" stroke-linecap="round" stroke-linejoin="round"/>
<path d="M315.792 159.208C316.443 159.379 316.944 159.699 317.296 160.168C317.659 160.637 317.84 161.224 317.84 161.928C317.84 162.92 317.515 163.683 316.864 164.216C316.213 164.739 315.291 165 314.096 165H310.064C309.861 165 309.696 164.941 309.568 164.824C309.451 164.707 309.392 164.552 309.392 164.36V154.36C309.392 154.168 309.451 154.013 309.568 153.896C309.696 153.779 309.861 153.72 310.064 153.72H313.92C315.083 153.72 315.984 153.976 316.624 154.488C317.264 155 317.584 155.725 317.584 156.664C317.584 157.272 317.424 157.795 317.104 158.232C316.795 158.669 316.357 158.995 315.792 159.208ZM310.688 158.728H313.728C314.571 158.728 315.205 158.557 315.632 158.216C316.069 157.875 316.288 157.379 316.288 156.728C316.288 155.448 315.435 154.808 313.728 154.808H310.688V158.728ZM313.968 163.912C314.853 163.912 315.504 163.752 315.92 163.432C316.347 163.101 316.56 162.589 316.56 161.896C316.56 160.509 315.696 159.816 313.968 159.816H310.688V163.912H313.968ZM323.165 157.016C325.117 157.016 326.093 158.04 326.093 160.088V164.44C326.093 164.632 326.035 164.787 325.917 164.904C325.811 165.021 325.661 165.08 325.469 165.08C325.277 165.08 325.123 165.021 325.005 164.904C324.888 164.787 324.829 164.632 324.829 164.44V163.672C324.627 164.131 324.317 164.488 323.901 164.744C323.485 164.989 323.005 165.112 322.461 165.112C321.96 165.112 321.496 165.011 321.069 164.808C320.653 164.605 320.323 164.323 320.077 163.96C319.832 163.597 319.709 163.197 319.709 162.76C319.709 162.173 319.859 161.72 320.157 161.4C320.456 161.069 320.947 160.835 321.629 160.696C322.312 160.547 323.261 160.472 324.477 160.472H324.829V159.944C324.829 159.304 324.696 158.835 324.429 158.536C324.173 158.237 323.752 158.088 323.165 158.088C322.44 158.088 321.704 158.285 320.957 158.68C320.669 158.861 320.467 158.952 320.349 158.952C320.221 158.952 320.115 158.904 320.029 158.808C319.944 158.712 319.901 158.589 319.901 158.44C319.901 158.291 319.944 158.163 320.029 158.056C320.125 157.939 320.275 157.821 320.477 157.704C320.851 157.491 321.272 157.325 321.741 157.208C322.221 157.08 322.696 157.016 323.165 157.016ZM322.637 164.088C323.277 164.088 323.8 163.875 324.205 163.448C324.621 163.011 324.829 162.451 324.829 161.768V161.304H324.541C323.603 161.304 322.888 161.347 322.397 161.432C321.907 161.507 321.555 161.64 321.341 161.832C321.139 162.013 321.037 162.285 321.037 162.648C321.037 163.064 321.187 163.411 321.485 163.688C321.795 163.955 322.179 164.088 322.637 164.088ZM329.106 165C328.892 165 328.727 164.947 328.61 164.84C328.492 164.723 328.434 164.563 328.434 164.36V157.688C328.434 157.496 328.492 157.341 328.61 157.224C328.727 157.107 328.882 157.048 329.074 157.048C329.276 157.048 329.436 157.107 329.554 157.224C329.671 157.341 329.73 157.496 329.73 157.688V163.976H332.754V157.688C332.754 157.496 332.807 157.341 332.914 157.224C333.031 157.107 333.186 157.048 333.378 157.048C333.58 157.048 333.74 157.107 333.858 157.224C333.975 157.341 334.034 157.496 334.034 157.688V163.976H337.058V157.688C337.058 157.496 337.116 157.341 337.234 157.224C337.351 157.107 337.506 157.048 337.698 157.048C337.89 157.048 338.044 157.107 338.162 157.224C338.279 157.341 338.338 157.496 338.338 157.688V164.328C338.348 164.531 338.295 164.696 338.178 164.824C338.06 164.941 337.9 165 337.698 165H329.106ZM345.481 165C345.278 165 345.113 164.941 344.985 164.824C344.867 164.707 344.809 164.552 344.809 164.36V157.88C344.809 157.677 344.867 157.517 344.985 157.4C345.102 157.272 345.262 157.208 345.465 157.208H348.233C349.086 157.208 349.747 157.373 350.217 157.704C350.686 158.035 350.921 158.531 350.921 159.192C350.921 159.576 350.809 159.933 350.585 160.264C350.361 160.595 350.019 160.84 349.561 161C350.041 161.085 350.419 161.288 350.697 161.608C350.985 161.928 351.129 162.333 351.129 162.824C351.129 163.187 351.027 163.533 350.825 163.864C350.633 164.195 350.323 164.467 349.897 164.68C349.47 164.893 348.937 165 348.297 165H345.481ZM348.137 160.568C348.585 160.568 348.947 160.456 349.225 160.232C349.502 159.997 349.641 159.683 349.641 159.288C349.641 158.541 349.123 158.168 348.089 158.168H346.105V160.568H348.137ZM348.169 164.04C349.267 164.04 349.817 163.619 349.817 162.776C349.817 162.349 349.657 162.029 349.337 161.816C349.017 161.603 348.579 161.496 348.025 161.496H346.105V164.04H348.169ZM359.06 163.192C359.177 163.192 359.279 163.24 359.364 163.336C359.449 163.432 359.492 163.555 359.492 163.704C359.492 163.971 359.305 164.216 358.932 164.44C358.548 164.664 358.143 164.835 357.716 164.952C357.289 165.059 356.873 165.112 356.468 165.112C355.263 165.112 354.308 164.755 353.604 164.04C352.911 163.325 352.564 162.339 352.564 161.08C352.564 160.28 352.719 159.576 353.028 158.968C353.337 158.349 353.769 157.869 354.324 157.528C354.889 157.187 355.529 157.016 356.244 157.016C357.257 157.016 358.063 157.347 358.66 158.008C359.257 158.669 359.556 159.565 359.556 160.696C359.556 160.909 359.513 161.064 359.428 161.16C359.343 161.256 359.204 161.304 359.012 161.304H353.86C353.956 163.139 354.825 164.056 356.468 164.056C356.884 164.056 357.241 164.003 357.54 163.896C357.839 163.779 358.159 163.624 358.5 163.432C358.777 163.272 358.964 163.192 359.06 163.192ZM356.26 158.024C355.577 158.024 355.028 158.237 354.612 158.664C354.207 159.091 353.967 159.693 353.892 160.472H358.42C358.399 159.683 358.201 159.08 357.828 158.664C357.455 158.237 356.932 158.024 356.26 158.024ZM364.682 165.112C363.956 165.112 363.311 164.947 362.746 164.616C362.191 164.285 361.759 163.816 361.45 163.208C361.151 162.6 361.002 161.896 361.002 161.096C361.002 160.296 361.156 159.587 361.466 158.968C361.786 158.349 362.228 157.869 362.794 157.528C363.359 157.187 364.01 157.016 364.746 157.016C365.151 157.016 365.551 157.075 365.946 157.192C366.351 157.299 366.703 157.459 367.002 157.672C367.194 157.8 367.327 157.928 367.402 158.056C367.487 158.173 367.53 158.307 367.53 158.456C367.53 158.605 367.487 158.728 367.402 158.824C367.327 158.92 367.226 158.968 367.098 158.968C367.023 158.968 366.943 158.947 366.858 158.904C366.772 158.861 366.698 158.819 366.634 158.776C366.58 158.733 366.543 158.707 366.522 158.696C366.244 158.515 365.978 158.371 365.722 158.264C365.476 158.157 365.172 158.104 364.81 158.104C364.031 158.104 363.423 158.371 362.986 158.904C362.559 159.427 362.346 160.157 362.346 161.096C362.346 162.035 362.559 162.76 362.986 163.272C363.423 163.784 364.031 164.04 364.81 164.04C365.172 164.04 365.482 163.987 365.738 163.88C366.004 163.773 366.271 163.629 366.538 163.448C366.655 163.373 366.767 163.309 366.874 163.256C366.98 163.203 367.071 163.176 367.146 163.176C367.263 163.176 367.359 163.224 367.434 163.32C367.519 163.416 367.562 163.539 367.562 163.688C367.562 163.827 367.524 163.955 367.45 164.072C367.375 164.179 367.236 164.301 367.034 164.44C366.735 164.643 366.372 164.808 365.946 164.936C365.53 165.053 365.108 165.112 364.682 165.112Z" fill="black"/>
<rect x="432" y="136" width="48" height="48" rx="12" fill="#CBC4EE"/>
<path d="M446 169H466" stroke="#7745AF" stroke-width="2" stroke-linecap="round" stroke-linejoin="round"/>
<path d="M464 169V160H448V169" stroke="#7745AF" stroke-width="2" stroke-linecap="round" stroke-linejoin="round"/>
<path d="M456 160V156" stroke="#7745AF" stroke-width="2" stroke-linecap="round" stroke-linejoin="round"/>
<path d="M456 153V151" stroke="#7745AF" stroke-width="2" stroke-linecap="round" stroke-linejoin="round"/>
<path d="M497.008 167.528C496.816 167.528 496.661 167.469 496.544 167.352C496.437 167.235 496.384 167.075 496.384 166.872V164.552C496.384 164.349 496.437 164.189 496.544 164.072C496.661 163.955 496.821 163.896 497.024 163.896H497.616C498.224 162.947 498.629 161.816 498.832 160.504C499.045 159.181 499.152 157.651 499.152 155.912V154.36C499.152 154.157 499.205 154.003 499.312 153.896C499.429 153.779 499.589 153.72 499.792 153.72H505.808C506.011 153.72 506.171 153.779 506.288 153.896C506.405 154.003 506.464 154.157 506.464 154.36V163.896H507.408C507.611 163.896 507.765 163.955 507.872 164.072C507.989 164.189 508.048 164.349 508.048 164.552V166.872C508.048 167.075 507.989 167.235 507.872 167.352C507.755 167.469 507.605 167.528 507.424 167.528C507.232 167.528 507.077 167.469 506.96 167.352C506.843 167.235 506.784 167.075 506.784 166.872V165H497.648V166.872C497.648 167.075 497.589 167.235 497.472 167.352C497.355 167.469 497.2 167.528 497.008 167.528ZM505.152 154.808H500.368V155.816C500.368 157.661 500.251 159.235 500.016 160.536C499.792 161.837 499.419 162.957 498.896 163.896H505.152V154.808ZM512.9 157.016C514.852 157.016 515.828 158.04 515.828 160.088V164.44C515.828 164.632 515.769 164.787 515.652 164.904C515.545 165.021 515.396 165.08 515.204 165.08C515.012 165.08 514.857 165.021 514.74 164.904C514.622 164.787 514.564 164.632 514.564 164.44V163.672C514.361 164.131 514.052 164.488 513.636 164.744C513.22 164.989 512.74 165.112 512.196 165.112C511.694 165.112 511.23 165.011 510.804 164.808C510.388 164.605 510.057 164.323 509.812 163.96C509.566 163.597 509.444 163.197 509.444 162.76C509.444 162.173 509.593 161.72 509.892 161.4C510.19 161.069 510.681 160.835 511.364 160.696C512.046 160.547 512.996 160.472 514.212 160.472H514.564V159.944C514.564 159.304 514.43 158.835 514.164 158.536C513.908 158.237 513.486 158.088 512.9 158.088C512.174 158.088 511.438 158.285 510.692 158.68C510.404 158.861 510.201 158.952 510.084 158.952C509.956 158.952 509.849 158.904 509.764 158.808C509.678 158.712 509.636 158.589 509.636 158.44C509.636 158.291 509.678 158.163 509.764 158.056C509.86 157.939 510.009 157.821 510.212 157.704C510.585 157.491 511.006 157.325 511.476 157.208C511.956 157.08 512.43 157.016 512.9 157.016ZM512.372 164.088C513.012 164.088 513.534 163.875 513.94 163.448C514.356 163.011 514.564 162.451 514.564 161.768V161.304H514.276C513.337 161.304 512.622 161.347 512.132 161.432C511.641 161.507 511.289 161.64 511.076 161.832C510.873 162.013 510.772 162.285 510.772 162.648C510.772 163.064 510.921 163.411 511.22 163.688C511.529 163.955 511.913 164.088 512.372 164.088ZM520.584 165.08C520.392 165.08 520.237 165.027 520.12 164.92C520.003 164.803 519.944 164.648 519.944 164.456V158.232H517.656C517.496 158.232 517.368 158.184 517.272 158.088C517.176 157.992 517.128 157.869 517.128 157.72C517.128 157.571 517.176 157.448 517.272 157.352C517.368 157.256 517.496 157.208 517.656 157.208H523.512C523.672 157.208 523.8 157.256 523.896 157.352C523.992 157.448 524.04 157.571 524.04 157.72C524.04 157.869 523.992 157.992 523.896 158.088C523.8 158.184 523.672 158.232 523.512 158.232H521.24V164.456C521.24 164.648 521.176 164.803 521.048 164.92C520.931 165.027 520.776 165.08 520.584 165.08ZM528.509 157.016C530.461 157.016 531.437 158.04 531.437 160.088V164.44C531.437 164.632 531.378 164.787 531.261 164.904C531.154 165.021 531.005 165.08 530.813 165.08C530.621 165.08 530.466 165.021 530.349 164.904C530.232 164.787 530.173 164.632 530.173 164.44V163.672C529.97 164.131 529.661 164.488 529.245 164.744C528.829 164.989 528.349 165.112 527.805 165.112C527.304 165.112 526.84 165.011 526.413 164.808C525.997 164.605 525.666 164.323 525.421 163.96C525.176 163.597 525.053 163.197 525.053 162.76C525.053 162.173 525.202 161.72 525.501 161.4C525.8 161.069 526.29 160.835 526.973 160.696C527.656 160.547 528.605 160.472 529.821 160.472H530.173V159.944C530.173 159.304 530.04 158.835 529.773 158.536C529.517 158.237 529.096 158.088 528.509 158.088C527.784 158.088 527.048 158.285 526.301 158.68C526.013 158.861 525.81 158.952 525.693 158.952C525.565 158.952 525.458 158.904 525.373 158.808C525.288 158.712 525.245 158.589 525.245 158.44C525.245 158.291 525.288 158.163 525.373 158.056C525.469 157.939 525.618 157.821 525.821 157.704C526.194 157.491 526.616 157.325 527.085 157.208C527.565 157.08 528.04 157.016 528.509 157.016ZM527.981 164.088C528.621 164.088 529.144 163.875 529.549 163.448C529.965 163.011 530.173 162.451 530.173 161.768V161.304H529.885C528.946 161.304 528.232 161.347 527.741 161.432C527.25 161.507 526.898 161.64 526.685 161.832C526.482 162.013 526.381 162.285 526.381 162.648C526.381 163.064 526.53 163.411 526.829 163.688C527.138 163.955 527.522 164.088 527.981 164.088ZM541.854 157.016C542.537 157.016 543.14 157.187 543.662 157.528C544.185 157.869 544.59 158.349 544.878 158.968C545.166 159.576 545.31 160.285 545.31 161.096C545.31 161.907 545.166 162.616 544.878 163.224C544.59 163.821 544.185 164.285 543.662 164.616C543.15 164.947 542.548 165.112 541.854 165.112C541.246 165.112 540.713 164.979 540.254 164.712C539.806 164.445 539.465 164.067 539.23 163.576V167.336C539.23 167.528 539.172 167.677 539.054 167.784C538.948 167.901 538.793 167.96 538.59 167.96C538.388 167.96 538.228 167.901 538.11 167.784C537.993 167.667 537.934 167.517 537.934 167.336V157.688C537.934 157.496 537.993 157.341 538.11 157.224C538.228 157.107 538.388 157.048 538.59 157.048C538.793 157.048 538.948 157.107 539.054 157.224C539.172 157.341 539.23 157.496 539.23 157.688V158.552C539.465 158.061 539.806 157.683 540.254 157.416C540.713 157.149 541.246 157.016 541.854 157.016ZM541.598 164.04C542.356 164.04 542.942 163.784 543.358 163.272C543.774 162.76 543.982 162.035 543.982 161.096C543.982 160.157 543.774 159.427 543.358 158.904C542.942 158.371 542.356 158.104 541.598 158.104C540.841 158.104 540.254 158.36 539.838 158.872C539.433 159.384 539.23 160.115 539.23 161.064C539.23 162.013 539.433 162.749 539.838 163.272C540.254 163.784 540.841 164.04 541.598 164.04ZM550.479 165.112C549.743 165.112 549.092 164.947 548.527 164.616C547.972 164.285 547.54 163.816 547.231 163.208C546.932 162.589 546.783 161.875 546.783 161.064C546.783 160.253 546.932 159.544 547.231 158.936C547.54 158.317 547.972 157.843 548.527 157.512C549.092 157.181 549.743 157.016 550.479 157.016C551.215 157.016 551.866 157.181 552.431 157.512C552.996 157.843 553.428 158.317 553.727 158.936C554.036 159.544 554.191 160.253 554.191 161.064C554.191 161.875 554.036 162.589 553.727 163.208C553.428 163.816 552.996 164.285 552.431 164.616C551.866 164.947 551.215 165.112 550.479 165.112ZM550.479 164.04C551.247 164.04 551.834 163.789 552.239 163.288C552.655 162.776 552.863 162.035 552.863 161.064C552.863 160.115 552.655 159.384 552.239 158.872C551.823 158.349 551.236 158.088 550.479 158.088C549.722 158.088 549.135 158.349 548.719 158.872C548.303 159.384 548.095 160.115 548.095 161.064C548.095 162.024 548.298 162.76 548.703 163.272C549.119 163.784 549.711 164.04 550.479 164.04ZM560.255 165.08C560.073 165.08 559.919 165.021 559.791 164.904C559.673 164.787 559.615 164.632 559.615 164.44V161.464H558.975C558.516 161.464 558.148 161.571 557.871 161.784C557.604 161.997 557.369 162.328 557.167 162.776L556.303 164.68C556.185 164.947 555.993 165.08 555.727 165.08C555.556 165.08 555.401 165.021 555.263 164.904C555.135 164.787 555.071 164.643 555.071 164.472C555.071 164.419 555.092 164.328 555.135 164.2L555.887 162.568C556.143 162.035 556.399 161.629 556.655 161.352C556.911 161.075 557.241 160.888 557.647 160.792L555.663 158.008C555.577 157.869 555.535 157.747 555.535 157.64C555.535 157.48 555.593 157.347 555.711 157.24C555.839 157.123 555.983 157.064 556.143 157.064C556.356 157.064 556.527 157.165 556.655 157.368L558.831 160.552H559.615V157.704C559.615 157.512 559.673 157.357 559.791 157.24C559.919 157.112 560.073 157.048 560.255 157.048C560.447 157.048 560.601 157.107 560.719 157.224C560.836 157.341 560.895 157.501 560.895 157.704V160.552H561.695L563.839 157.384C563.977 157.171 564.153 157.064 564.367 157.064C564.527 157.064 564.665 157.123 564.783 157.24C564.911 157.347 564.975 157.48 564.975 157.64C564.975 157.768 564.932 157.891 564.847 158.008L562.879 160.792C563.284 160.888 563.615 161.075 563.871 161.352C564.127 161.619 564.377 162.024 564.623 162.568L565.391 164.2C565.433 164.285 565.455 164.376 565.455 164.472C565.455 164.653 565.385 164.803 565.247 164.92C565.108 165.037 564.953 165.096 564.783 165.096C564.665 165.096 564.553 165.064 564.447 165C564.351 164.925 564.276 164.824 564.223 164.696L563.359 162.776C563.145 162.328 562.9 161.997 562.623 161.784C562.356 161.571 561.993 161.464 561.535 161.464H560.895V164.44C560.895 164.632 560.836 164.787 560.719 164.904C560.601 165.021 560.447 165.08 560.255 165.08ZM566.565 167.112C566.384 167.112 566.234 167.053 566.117 166.936C566.01 166.829 565.957 166.68 565.957 166.488V164.648C565.957 164.445 566.01 164.285 566.117 164.168C566.224 164.04 566.362 163.976 566.533 163.976H566.821C567.205 163.421 567.477 162.76 567.637 161.992C567.797 161.224 567.877 160.221 567.877 158.984V157.88C567.877 157.677 567.936 157.517 568.053 157.4C568.17 157.272 568.33 157.208 568.533 157.208H572.549C572.752 157.208 572.912 157.267 573.029 157.384C573.157 157.501 573.221 157.661 573.221 157.864V163.976H573.765C573.968 163.976 574.128 164.035 574.245 164.152C574.373 164.269 574.437 164.429 574.437 164.632V166.488C574.437 166.68 574.384 166.829 574.277 166.936C574.17 167.053 574.021 167.112 573.829 167.112C573.648 167.112 573.498 167.053 573.381 166.936C573.274 166.829 573.221 166.68 573.221 166.488V165H567.173V166.488C567.173 166.68 567.114 166.829 566.997 166.936C566.89 167.053 566.746 167.112 566.565 167.112ZM571.941 158.232H569.045V158.984C569.045 161.331 568.704 162.995 568.021 163.976H571.941V158.232ZM581.873 163.192C581.99 163.192 582.091 163.24 582.177 163.336C582.262 163.432 582.305 163.555 582.305 163.704C582.305 163.971 582.118 164.216 581.745 164.44C581.361 164.664 580.955 164.835 580.529 164.952C580.102 165.059 579.686 165.112 579.281 165.112C578.075 165.112 577.121 164.755 576.417 164.04C575.723 163.325 575.377 162.339 575.377 161.08C575.377 160.28 575.531 159.576 575.841 158.968C576.15 158.349 576.582 157.869 577.137 157.528C577.702 157.187 578.342 157.016 579.057 157.016C580.07 157.016 580.875 157.347 581.473 158.008C582.07 158.669 582.369 159.565 582.369 160.696C582.369 160.909 582.326 161.064 582.241 161.16C582.155 161.256 582.017 161.304 581.825 161.304H576.673C576.769 163.139 577.638 164.056 579.281 164.056C579.697 164.056 580.054 164.003 580.353 163.896C580.651 163.779 580.971 163.624 581.313 163.432C581.59 163.272 581.777 163.192 581.873 163.192ZM579.073 158.024C578.39 158.024 577.841 158.237 577.425 158.664C577.019 159.091 576.779 159.693 576.705 160.472H581.233C581.211 159.683 581.014 159.08 580.641 158.664C580.267 158.237 579.745 158.024 579.073 158.024ZM584.902 165.08C584.699 165.08 584.539 165.027 584.422 164.92C584.305 164.803 584.246 164.648 584.246 164.456V157.688C584.246 157.496 584.305 157.341 584.422 157.224C584.539 157.107 584.699 157.048 584.902 157.048C585.094 157.048 585.249 157.107 585.366 157.224C585.483 157.341 585.542 157.496 585.542 157.688V160.472H589.734V157.688C589.734 157.496 589.793 157.341 589.91 157.224C590.038 157.107 590.198 157.048 590.39 157.048C590.582 157.048 590.737 157.107 590.854 157.224C590.971 157.341 591.03 157.496 591.03 157.688L591.046 164.424C591.046 164.627 590.987 164.787 590.87 164.904C590.753 165.021 590.593 165.08 590.39 165.08C590.198 165.08 590.038 165.021 589.91 164.904C589.793 164.787 589.734 164.627 589.734 164.424V161.512H585.542V164.456C585.542 164.648 585.483 164.803 585.366 164.92C585.249 165.027 585.094 165.08 584.902 165.08ZM598.827 157.464C598.933 157.315 599.045 157.208 599.163 157.144C599.28 157.08 599.419 157.048 599.579 157.048C599.781 157.048 599.941 157.112 600.059 157.24C600.187 157.368 600.251 157.528 600.251 157.72V164.456C600.251 164.637 600.192 164.787 600.075 164.904C599.957 165.021 599.808 165.08 599.627 165.08C599.456 165.08 599.307 165.021 599.179 164.904C599.061 164.776 599.003 164.627 599.003 164.456V158.872L594.795 164.696C594.613 164.952 594.373 165.08 594.075 165.08C593.872 165.08 593.707 165.021 593.579 164.904C593.451 164.776 593.387 164.616 593.387 164.424V157.688C593.387 157.507 593.445 157.357 593.563 157.24C593.691 157.112 593.845 157.048 594.027 157.048C594.208 157.048 594.357 157.112 594.475 157.24C594.592 157.357 594.651 157.507 594.651 157.688V163.192L598.827 157.464ZM607.982 165.08C607.779 165.08 607.619 165.027 607.502 164.92C607.384 164.803 607.326 164.643 607.326 164.44V162.072H606.334C605.907 162.072 605.539 162.168 605.23 162.36C604.931 162.552 604.659 162.835 604.414 163.208L603.374 164.808C603.224 165.021 603.038 165.128 602.814 165.128C602.654 165.128 602.51 165.069 602.382 164.952C602.254 164.835 602.19 164.696 602.19 164.536C602.19 164.429 602.232 164.307 602.318 164.168L602.99 163.096C603.214 162.744 603.459 162.451 603.726 162.216C604.003 161.981 604.286 161.827 604.574 161.752C603.848 161.645 603.326 161.395 603.006 161C602.686 160.605 602.526 160.141 602.526 159.608C602.526 158.84 602.766 158.248 603.246 157.832C603.736 157.416 604.387 157.208 605.198 157.208H607.95C608.152 157.208 608.312 157.267 608.43 157.384C608.547 157.501 608.606 157.656 608.606 157.848V164.44C608.606 164.643 608.547 164.803 608.43 164.92C608.323 165.027 608.174 165.08 607.982 165.08ZM607.326 158.184H605.549C604.984 158.184 604.547 158.307 604.238 158.552C603.928 158.797 603.774 159.165 603.774 159.656C603.774 160.179 603.939 160.552 604.27 160.776C604.611 160.989 605.048 161.096 605.582 161.096H607.326V158.184Z" fill="black"/>
<rect x="0.5" y="0.5" width="644" height="239" rx="4.5" stroke="#7B61FF" stroke-dasharray="10 5"/>
</svg>
