<svg width="24" height="24" viewBox="0 0 24 24" fill="none" xmlns="http://www.w3.org/2000/svg">
<path d="M5.94792 5.94794C3.95178 7.39125 2.51154 9.53039 2 12C2.94545 16.5645 7.06333 20 12 20C14.2657 20 16.3589 19.2764 18.0521 18.0521" stroke="#252525" stroke-width="2" stroke-linecap="round" stroke-linejoin="round"/>
<path d="M9.52513 9.5249C8.89175 10.1583 8.5 11.0333 8.5 11.9998C8.5 13.9328 10.067 15.4998 12 15.4998C12.9665 15.4998 13.8415 15.108 14.4749 14.4746" stroke="#252525" stroke-width="2" stroke-linecap="round" stroke-linejoin="round"/>
<path d="M1 1L23 23" stroke="#252525" stroke-width="2" stroke-linecap="round" stroke-linejoin="round"/>
<path d="M9.34277 4.3425C10.1901 4.11913 11.081 4 12.0003 4C16.9369 4 21.0548 7.43552 22.0003 12C21.7359 13.2764 21.2234 14.4646 20.5143 15.514" stroke="#252525" stroke-width="2" stroke-linecap="round" stroke-linejoin="round"/>
</svg>
