<svg width="24" height="24" viewBox="0 0 24 24" fill="none" xmlns="http://www.w3.org/2000/svg">
<g clip-path="url(#clip0)">
<path d="M21.4746 6.31494C20.9775 6.55542 20.7695 7.15356 21.01 7.65039C21.667 9.00757 22 10.4705 22 12C22 17.5139 17.5139 22 12 22C6.48608 22 2 17.5139 2 12C2 6.48608 6.48608 2 12 2C14.2849 2 16.4314 2.74609 18.208 4.15747C18.6389 4.50146 19.269 4.42944 19.613 3.99707C19.957 3.56494 19.885 2.93555 19.4524 2.59204C17.3491 0.92041 14.7024 0 12 0C5.38354 0 0 5.38354 0 12C0 18.6165 5.38354 24 12 24C18.6165 24 24 18.6165 24 12C24 10.1665 23.5996 8.40942 22.8101 6.77954C22.5701 6.28149 21.97 6.07397 21.4746 6.31494Z" fill="#252525"/>
<path d="M12 5C11.448 5 11 5.448 11 6V13C11 13.552 11.448 14 12 14H17C17.552 14 18 13.552 18 13C18 12.448 17.552 12 17 12H13V6C13 5.448 12.552 5 12 5Z" fill="#252525"/>
</g>
<defs>
<clipPath id="clip0">
<rect width="24" height="24" fill="white"/>
</clipPath>
</defs>
</svg>
